PathFileType	4	(X/Y/Z)	./resultDataOpenSim/trcMotMarkerGrf/sub10/qtm-04-07.trc
DataRate	CameraRate	NumFrames	NumMarkers	Units	OrigDataRate	OrigDataStartFrame	OrigNumFrames
250.000000	250.000000	7	24	m	250.000000	141	562
Frame#	Time	L.Toe.Tip			R.Toe.Tip			L.Ankle.Lat			R.Ankle.Lat			L.Ankle.Med			R.Ankle.Med			L.Heel			R.Heel			L.Knee.Lat			R.Knee.Lat			L.Knee.Med			R.Knee.Med			L.Thigh.Upper			R.Thigh.Upper			L.ASIS			R.ASIS			V.Sacral			L.Acromium			R.Acromium			C7			L.Elbow			R.Elbow			L.Wrist.Lat			R.Wrist.Lat
		X1	Y1	Z1	X2	Y2	Z2	X3	Y3	Z3	X4	Y4	Z4	X5	Y5	Z5	X6	Y6	Z6	X7	Y7	Z7	X8	Y8	Z8	X9	Y9	Z9	X10	Y10	Z10	X11	Y11	Z11	X12	Y12	Z12	X13	Y13	Z13	X14	Y14	Z14	X15	Y15	Z15	X16	Y16	Z16	X17	Y17	Z17	X18	Y18	Z18	X19	Y19	Z19	X20	Y20	Z20	X21	Y21	Z21	X22	Y22	Z22	X23	Y23	Z23	X24	Y24	Z24

141	0.56	-0.42976274	0.072052867	-0.16594662	-0.75087217	0.039208108	0.016850158	-0.5620174	0.10108784	-0.17329805	-0.89284908	0.05461352	0.046061256	-0.54162704	0.12131824	-0.092894624	-0.87015396	0.08033836	-0.037226138	-0.61839806	0.070232796	-0.11753843	-0.94259969	0.031471839	-0.0043484483	-0.51417637	0.48836718	-0.19688615	-0.77167779	0.44002521	0.09095763	-0.48417506	0.46571409	-0.079343549	-0.76135837	0.44449758	-0.03902423	-0.67169665	0.84195898	-0.22929653	-0.72603544	0.85073469	0.15239521	-0.63203085	0.94919661	-0.1538644	-0.64510045	0.94258845	0.091163588	-0.83479576	0.9554234	-0.048045767	-0.69845605	1.4187267	-0.17416614	-0.71054808	1.4010175	0.15075278	-0.78671926	1.43985	-0.017754405	-0.82773585	1.1040582	-0.25880454	-0.79033168	1.0622466	0.23690129	-0.71241033	0.88784269	-0.2775033	-0.60333332	0.89930626	0.26922694
142	0.564	-0.41274723	0.072158123	-0.16389103	-0.75091511	0.039202021	0.016795841	-0.54566552	0.098596183	-0.17297155	-0.89279872	0.054629663	0.046070839	-0.52652616	0.11961191	-0.092312666	-0.87002273	0.080335958	-0.037287822	-0.60176182	0.066854688	-0.11761307	-0.94261953	0.031571365	-0.0045393032	-0.50809819	0.48724069	-0.19663082	-0.77030058	0.43957652	0.090824391	-0.47872615	0.46529064	-0.078688459	-0.75955608	0.44408975	-0.039092056	-0.66582729	0.84139524	-0.22927148	-0.72222999	0.85002754	0.15224492	-0.62656077	0.94857757	-0.15371494	-0.64074108	0.94176083	0.091300252	-0.8302145	0.9543374	-0.048314139	-0.69379978	1.4178407	-0.17414107	-0.70567867	1.4001463	0.15074044	-0.78195795	1.4390197	-0.017654026	-0.82454049	1.1036719	-0.25946116	-0.78385228	1.0610876	0.23808279	-0.70965837	0.88701699	-0.27777825	-0.59481887	0.90001112	0.26951288
143	0.568	-0.39577798	0.07232751	-0.161672	-0.75095202	0.039160988	0.016747706	-0.52925203	0.096279355	-0.17266109	-0.89275011	0.054651453	0.046079137	-0.5114415	0.11806083	-0.091809065	-0.86989242	0.080334562	-0.037366771	-0.58516906	0.063670549	-0.11787308	-0.94263396	0.031647431	-0.004606661	-0.50204866	0.48601069	-0.19633349	-0.76859843	0.43913353	0.090787741	-0.47349588	0.46466495	-0.078084912	-0.7576492	0.4436683	-0.039119119	-0.65975886	0.84076704	-0.22921474	-0.7183985	0.84928936	0.15210627	-0.62082933	0.94790276	-0.15351358	-0.63638543	0.94089942	0.091441656	-0.82618424	0.95299988	-0.048628097	-0.68912723	1.416892	-0.1741421	-0.70078447	1.3992103	0.15071939	-0.77719291	1.4381436	-0.017582389	-0.82108023	1.1032132	-0.2597501	-0.7773132	1.0598725	0.23921069	-0.70687753	0.88613391	-0.27803517	-0.5862904	0.90064904	0.26976448
144	0.572	-0.37886867	0.072541561	-0.15929011	-0.75096171	0.03912026	0.016723998	-0.51280108	0.094155048	-0.17238046	-0.89270983	0.054684064	0.046077499	-0.49636614	0.11665627	-0.091361594	-0.86975229	0.080339182	-0.037455446	-0.56857889	0.060723894	-0.11822083	-0.94264591	0.031724692	-0.0046314721	-0.4960415	0.48468883	-0.19600223	-0.76668424	0.43869717	0.090806452	-0.46845669	0.46384031	-0.077520188	-0.75565834	0.44323404	-0.039134936	-0.6535738	0.84007044	-0.2291416	-0.71454943	0.84852643	0.15197583	-0.61494881	0.94715664	-0.15329025	-0.63208609	0.93999908	0.091584796	-0.82206047	0.95157488	-0.049191969	-0.68444954	1.4158806	-0.17416606	-0.69586736	1.3982222	0.15069949	-0.77242801	1.4372268	-0.01754123	-0.81716051	1.1026807	-0.25933935	-0.77067611	1.0585927	0.24025694	-0.70407841	0.88519839	-0.27827254	-0.57782106	0.90122299	0.26998852
145	0.576	-0.36204033	0.072753402	-0.15677105	-0.75094466	0.039094517	0.016721867	-0.49634262	0.092224331	-0.17214361	-0.8926802	0.054724539	0.046068205	-0.48130761	0.11538511	-0.090980224	-0.86960417	0.080346698	-0.037553794	-0.55197604	0.058061109	-0.1185637	-0.94265376	0.031812543	-0.0046501148	-0.49010047	0.48327935	-0.1956376	-0.7646949	0.43825187	0.090825711	-0.46357665	0.46281766	-0.07697751	-0.75359027	0.44278624	-0.039163032	-0.64742177	0.83930602	-0.2290797	-0.71067931	0.84774535	0.1518351	-0.60910463	0.94633746	-0.15308875	-0.62791299	0.93904197	0.091725855	-0.81747388	0.95025433	-0.049935692	-0.67976269	1.4148119	-0.17420495	-0.69093634	1.3971828	0.15068257	-0.76765706	1.4362707	-0.017522654	-0.81293374	1.1020804	-0.2584707	-0.76390432	1.0572367	0.24119202	-0.70126507	0.88421346	-0.27849227	-0.56947554	0.90173461	0.27019405
146	0.58	-0.34530963	0.072927204	-0.15414258	-0.75091801	0.039074783	0.01672372	-0.47992108	0.090476525	-0.17195115	-0.8926627	0.054770118	0.046054404	-0.46627451	0.11425155	-0.090685379	-0.86945673	0.080348701	-0.037663116	-0.53545779	0.055730772	-0.11889848	-0.9426549	0.031910474	-0.0046720426	-0.48423826	0.48178144	-0.19524979	-0.7627387	0.43777205	0.09079685	-0.45883857	0.46159538	-0.076449188	-0.75144282	0.44232283	-0.039207496	-0.64137058	0.8384787	-0.2290399	-0.70678051	0.84694038	0.1516747	-0.60336347	0.94546695	-0.15292608	-0.62385044	0.93802744	0.091875648	-0.81248378	0.94908447	-0.050746141	-0.67505379	1.413694	-0.17425137	-0.68600444	1.3960863	0.15066191	-0.76287213	1.4352702	-0.01752011	-0.80883959	1.1014257	-0.25782335	-0.75701134	1.0558065	0.24202174	-0.69842761	0.88318046	-0.27869815	-0.56124397	0.90218462	0.27038226
147	0.584	-0.32869912	0.073052043	-0.15142935	-0.75091033	0.039036871	0.016704242	-0.46356967	0.088901421	-0.17179028	-0.89265696	0.054824133	0.046034695	-0.45127744	0.1132859	-0.090496248	-0.86931809	0.080339586	-0.037783651	-0.51918126	0.053809216	-0.11925992	-0.94264956	0.032016149	-0.0047023475	-0.47844744	0.48020043	-0.19485773	-0.76085902	0.43723798	0.09069439	-0.45423709	0.46017976	-0.07593568	-0.74921533	0.44183678	-0.039263919	-0.6354146	0.83758943	-0.229016	-0.70285644	0.84609856	0.15150725	-0.59764704	0.94457122	-0.15278797	-0.61971378	0.93700023	0.092060693	-0.80745739	0.94791966	-0.051814111	-0.67031501	1.4125325	-0.17430329	-0.68106399	1.3949321	0.15063033	-0.75806875	1.434221	-0.017528068	-0.80521493	1.1007307	-0.25789609	-0.75008564	1.054327	0.24280726	-0.69555411	0.88210024	-0.27889342	-0.55306465	0.90257586	0.27054755
